<?xml version="1.0" encoding="UTF-8"?>
<svg width="120px" height="28px" viewBox="0 0 120 28" version="1.1" xmlns="http://www.w3.org/2000/svg" xmlns:xlink="http://www.w3.org/1999/xlink">
    <title>Willkie Corporate</title>
    <g id="📄-Pages" stroke="none" stroke-width="1" fill="none" fill-rule="evenodd">
        <g id="Nav-/-Static" transform="translate(-36.000000, -20.000000)" fill="#FFFFFF">
            <path d="M45.4900176,20 L45.4900176,20.6885612 L42.147953,20.6885612 L46.9208249,40.4481823 L50.869853,24.9361793 L49.8336473,20.6885612 L47.1166196,20.6885612 L47.1166196,20 L57.056965,20 L57.056965,20.6885612 L53.3956044,20.6885612 L58.2076352,40.2812583 L58.2190218,40.2375775 C58.3391968,39.7765653 59.3900202,35.7454464 60.3874354,31.9199434 L60.5735846,31.2059929 C61.4371179,27.8940724 62.2126719,24.9202507 62.2410057,24.8139671 C62.6506684,23.2430936 62.738023,22.8242934 62.738023,22.275829 C62.738023,20.8158215 61.5599135,20.6851757 59.9323235,20.6810133 L59.5490785,20.6817505 C59.3537982,20.6826943 59.1532798,20.6840901 58.9486428,20.6840901 L58.9486428,20.0089424 L67.9416431,20.0089424 L67.9416431,20.6840901 C64.6266886,20.6840901 63.9429133,21.3264491 63.058825,24.7737265 L57.2166129,48 L56.5388621,48 L51.1816184,26.1329643 L45.6963551,48 L45.0788488,48 L38.4911108,20.6885612 L36,20.6885612 L36,20 L45.4900176,20 Z M116.405496,24.1935168 L116.405496,24.8790972 L113.943001,24.8790972 L113.943001,35.8558365 L120.911786,28.0193538 C121.202466,27.6884867 121.514231,27.3442061 121.737136,26.9567041 C122.625742,25.4052057 121.535316,24.882078 119.943355,24.882078 L119.10445,24.8790972 L119.10445,24.1935168 L126.636521,24.1935168 L126.636521,24.8761165 C124.919552,24.8761165 123.612246,25.858285 122.04137,27.7302177 L117.873956,32.4756268 L126.089802,46.4868047 L128.273666,46.4868047 L128.273666,47.1589716 L119.914739,47.1589716 L119.914739,46.4868047 L122.699542,46.4868047 L115.735276,34.8349178 L113.943001,36.9095438 L113.943001,46.4823335 L116.940166,46.4823335 L116.940166,47.160462 L108.329718,47.160462 L108.329718,46.4823335 L110.817817,46.4823335 L110.817817,24.8790972 L108.329718,24.8790972 L108.329718,24.1935168 L116.405496,24.1935168 Z M100.980791,24.1929206 L100.980791,24.8814819 L98.4987167,24.8814819 L98.4987167,46.4876989 L100.153935,46.4876989 C104.583413,46.4876989 106.335022,45.5010592 106.335022,40.5052643 L106.984157,40.5052643 L106.984157,47.1598659 L92.8944704,47.1598659 L92.8944704,46.4862085 L95.3765446,46.4862085 L95.3765446,24.8799915 L92.8944704,24.8799915 L92.8944704,24.1929206 L100.980791,24.1929206 Z M85.3372476,24.1929206 L85.3372476,24.8814819 L82.8551734,24.8814819 L82.8551734,46.4876989 L84.5118977,46.4876989 C88.9398697,46.4876989 90.691479,45.5010592 90.691479,40.5052643 L91.3421198,40.5052643 L91.3421198,47.1598659 L77.2524333,47.1598659 L77.2524333,46.4862085 L79.7345074,46.4862085 L79.7345074,24.8799915 L77.2524333,24.8799915 L77.2524333,24.1929206 L85.3372476,24.1929206 Z M74.3251522,24.1951562 L74.3251522,24.8822271 L71.775303,24.8822271 L71.775303,46.4869537 L74.3251522,46.4869537 L74.3251522,47.1561399 L65.8909198,47.1561399 L65.8909198,46.4869537 L68.4467934,46.4869537 L68.4467934,24.8822271 L65.8909198,24.8822271 L65.8909198,24.1951562 L74.3251522,24.1951562 Z M137.590782,24.1975409 L137.590782,24.8816309 L135.040932,24.8816309 L135.040932,46.4818864 L137.590782,46.4818864 L137.590782,47.1555437 L129.156549,47.1555437 L129.156549,46.4818864 L131.712423,46.4818864 L131.712423,24.8816309 L129.156549,24.8816309 L129.156549,24.1975409 L137.590782,24.1975409 Z M155.7289,24.1973918 L155.7289,30.2901155 L155.090308,30.2901155 C155.090308,25.896439 153.15194,24.8814819 148.61101,24.8814819 L145.653004,24.8829723 L145.653004,34.7478789 L146.848858,34.7478789 C150.225563,34.7478789 150.624683,33.4422952 150.624683,30.1708841 L151.275324,30.1708841 L151.275324,39.7168468 L150.624683,39.7168468 C150.624683,37.1623144 149.928859,35.3276415 147.729934,35.3276415 L145.65451,35.3350934 L145.65451,46.4876989 L149.731558,46.4847182 C152.680527,46.4936605 155.341829,45.4593283 155.341829,40.5082451 L156,40.5082451 L156,47.1553947 L140.038215,47.1553947 L140.038215,46.4876989 L142.536856,46.4876989 L142.536856,24.8829723 L140.038215,24.8814819 L140.038215,24.1973918 L155.7289,24.1973918 Z" id="logo-short-purple"></path>
        </g>
    </g>
</svg>